<svg width="680" height="400" viewBox="0 0 680 400" xmlns="http://www.w3.org/2000/svg">
  <ellipse cx="340" cy="178" rx="80" ry="72" fill="#5DCAA5"/>
  <ellipse cx="340" cy="188" rx="52" ry="50" fill="#9FE1CB"/>
  <ellipse cx="278" cy="118" rx="18" ry="16" fill="#5DCAA5"/>
  <ellipse cx="278" cy="118" rx="10" ry="9" fill="#9FE1CB"/>
  <ellipse cx="402" cy="118" rx="18" ry="16" fill="#5DCAA5"/>
  <ellipse cx="402" cy="118" rx="10" ry="9" fill="#9FE1CB"/>
  <ellipse cx="340" cy="158" rx="60" ry="56" fill="#9FE1CB"/>
  <ellipse cx="320" cy="146" rx="9" ry="10" fill="#2C2C2A"/>
  <ellipse cx="360" cy="146" rx="9" ry="10" fill="#2C2C2A"/>
  <circle cx="323" cy="143" r="3" fill="white"/>
  <circle cx="363" cy="143" r="3" fill="white"/>
  <ellipse cx="340" cy="162" rx="8" ry="5" fill="#1D9E75"/>
  <path d="M328 170 Q340 180 352 170" fill="none" stroke="#0F6E56" stroke-width="2.5" stroke-linecap="round"/>
  <circle cx="316" cy="166" r="2" fill="#0F6E56" opacity="0.5"/>
  <circle cx="308" cy="170" r="2" fill="#0F6E56" opacity="0.5"/>
  <circle cx="364" cy="166" r="2" fill="#0F6E56" opacity="0.5"/>
  <circle cx="372" cy="170" r="2" fill="#0F6E56" opacity="0.5"/>
  <ellipse cx="280" cy="210" rx="16" ry="10" fill="#5DCAA5" transform="rotate(-30 280 210)"/>
  <ellipse cx="400" cy="210" rx="16" ry="10" fill="#5DCAA5" transform="rotate(30 400 210)"/>
  <rect x="406" y="198" width="6" height="22" rx="3" fill="#085041" transform="rotate(20 409 209)"/>
  <ellipse cx="411" cy="198" rx="7" ry="4" fill="#085041" transform="rotate(20 411 198)"/>
  <path d="M230 185 Q200 175 170 185" fill="none" stroke="#1D9E75" stroke-width="2.5" stroke-linecap="round" stroke-dasharray="5 4" opacity="0.7"/>
  <path d="M230 200 Q195 200 165 208" fill="none" stroke="#1D9E75" stroke-width="2" stroke-linecap="round" stroke-dasharray="4 4" opacity="0.45"/>
  <circle cx="158" cy="184" r="9" fill="#5DCAA5" opacity="0.8"/>
  <circle cx="152" cy="207" r="7" fill="#9FE1CB" opacity="0.6"/>
  <path d="M450 185 Q480 175 510 185" fill="none" stroke="#1D9E75" stroke-width="2.5" stroke-linecap="round" stroke-dasharray="5 4" opacity="0.7"/>
  <path d="M450 200 Q485 200 515 208" fill="none" stroke="#1D9E75" stroke-width="2" stroke-linecap="round" stroke-dasharray="4 4" opacity="0.45"/>
  <circle cx="522" cy="184" r="9" fill="#5DCAA5" opacity="0.8"/>
  <circle cx="528" cy="207" r="7" fill="#9FE1CB" opacity="0.6"/>
  <text x="340" y="295" text-anchor="middle" font-family="system-ui,sans-serif" font-size="42" font-weight="700" letter-spacing="-1" fill="#085041">Otter<tspan fill="#1D9E75">Flow</tspan></text>
  <text x="340" y="328" text-anchor="middle" font-family="system-ui,sans-serif" font-size="15" font-weight="400" fill="#1D9E75" letter-spacing="2">CLEVER AGENTS. CLEAN CODE.</text>
  <rect x="298" y="348" width="84" height="24" rx="12" fill="#E1F5EE"/>
  <text x="340" y="364" text-anchor="middle" font-family="system-ui,sans-serif" font-size="12" font-weight="500" fill="#085041">v0.2.2 · MIT</text>
</svg>

